<svg width="215" height="36" viewBox="0 0 215 36" fill="none" xmlns="http://www.w3.org/2000/svg">
<path d="M14.744 35.384C12.024 35.384 9.576 34.824 7.4 33.704C5.256 32.552 3.576 30.968 2.36 28.952C1.144 26.936 0.536 24.648 0.536 22.088C0.536 19.528 1.144 17.24 2.36 15.224C3.576 13.208 5.256 11.64 7.4 10.52C9.576 9.368 12.024 8.792 14.744 8.792C17.464 8.792 19.896 9.368 22.04 10.52C24.184 11.64 25.864 13.208 27.08 15.224C28.296 17.24 28.904 19.528 28.904 22.088C28.904 24.648 28.296 26.936 27.08 28.952C25.864 30.968 24.184 32.552 22.04 33.704C19.896 34.824 17.464 35.384 14.744 35.384ZM14.744 29.24C16.664 29.24 18.232 28.6 19.448 27.32C20.696 26.008 21.32 24.264 21.32 22.088C21.32 19.912 20.696 18.184 19.448 16.904C18.232 15.592 16.664 14.936 14.744 14.936C12.824 14.936 11.24 15.592 9.992 16.904C8.744 18.184 8.12 19.912 8.12 22.088C8.12 24.264 8.744 26.008 9.992 27.32C11.24 28.6 12.824 29.24 14.744 29.24ZM59.9251 9.176V35H52.8211V31.928C51.8291 33.048 50.6451 33.912 49.2691 34.52C47.8931 35.096 46.4051 35.384 44.8051 35.384C41.4131 35.384 38.7251 34.408 36.7411 32.456C34.7571 30.504 33.7651 27.608 33.7651 23.768V9.176H41.2531V22.664C41.2531 26.824 42.9971 28.904 46.4851 28.904C48.2771 28.904 49.7171 28.328 50.8051 27.176C51.8931 25.992 52.4371 24.248 52.4371 21.944V9.176H59.9251ZM74.0143 12.584C74.9103 11.336 76.1103 10.392 77.6143 9.752C79.1503 9.112 80.9103 8.792 82.8943 8.792V15.704C82.0623 15.64 81.5023 15.608 81.2143 15.608C79.0703 15.608 77.3903 16.216 76.1743 17.432C74.9583 18.616 74.3503 20.408 74.3503 22.808V35H66.8623V9.176H74.0143V12.584ZM98.7271 35.576C96.0711 35.576 93.4951 35.224 90.9991 34.52C88.5351 33.784 86.5511 32.84 85.0471 31.688L87.6871 25.832C89.1271 26.888 90.8391 27.736 92.8231 28.376C94.8071 29.016 96.7911 29.336 98.7751 29.336C100.983 29.336 102.615 29.016 103.671 28.376C104.727 27.704 105.255 26.824 105.255 25.736C105.255 24.936 104.935 24.28 104.295 23.768C103.687 23.224 102.887 22.792 101.895 22.472C100.935 22.152 99.6231 21.8 97.9591 21.416C95.3991 20.808 93.3031 20.2 91.6711 19.592C90.0391 18.984 88.6311 18.008 87.4471 16.664C86.2951 15.32 85.7191 13.528 85.7191 11.288C85.7191 9.336 86.2471 7.576 87.3031 6.008C88.3591 4.408 89.9431 3.144 92.0551 2.216C94.1991 1.288 96.8071 0.823999 99.8791 0.823999C102.023 0.823999 104.119 1.08 106.167 1.592C108.215 2.104 110.007 2.84 111.543 3.8L109.143 9.704C106.039 7.944 102.935 7.064 99.8311 7.064C97.6551 7.064 96.0391 7.416 94.9831 8.12C93.9591 8.824 93.4471 9.752 93.4471 10.904C93.4471 12.056 94.0391 12.92 95.2231 13.496C96.4391 14.04 98.2791 14.584 100.743 15.128C103.303 15.736 105.399 16.344 107.031 16.952C108.663 17.56 110.055 18.52 111.207 19.832C112.391 21.144 112.983 22.92 112.983 25.16C112.983 27.08 112.439 28.84 111.351 30.44C110.295 32.008 108.695 33.256 106.551 34.184C104.407 35.112 101.799 35.576 98.7271 35.576ZM134.425 33.752C133.689 34.296 132.777 34.712 131.689 35C130.633 35.256 129.513 35.384 128.329 35.384C125.257 35.384 122.873 34.6 121.177 33.032C119.513 31.464 118.681 29.16 118.681 26.12V15.512H114.697V9.752H118.681V3.464H126.169V9.752H132.601V15.512H126.169V26.024C126.169 27.112 126.441 27.96 126.984 28.568C127.561 29.144 128.361 29.432 129.385 29.432C130.569 29.432 131.577 29.112 132.409 28.472L134.425 33.752ZM150.119 35.384C147.399 35.384 144.951 34.824 142.775 33.704C140.631 32.552 138.951 30.968 137.735 28.952C136.519 26.936 135.911 24.648 135.911 22.088C135.911 19.528 136.519 17.24 137.735 15.224C138.951 13.208 140.631 11.64 142.775 10.52C144.951 9.368 147.399 8.792 150.119 8.792C152.839 8.792 155.271 9.368 157.415 10.52C159.559 11.64 161.239 13.208 162.455 15.224C163.671 17.24 164.279 19.528 164.279 22.088C164.279 24.648 163.671 26.936 162.455 28.952C161.239 30.968 159.559 32.552 157.415 33.704C155.271 34.824 152.839 35.384 150.119 35.384ZM150.119 29.24C152.039 29.24 153.607 28.6 154.823 27.32C156.071 26.008 156.695 24.264 156.695 22.088C156.695 19.912 156.071 18.184 154.823 16.904C153.607 15.592 152.039 14.936 150.119 14.936C148.199 14.936 146.615 15.592 145.367 16.904C144.119 18.184 143.495 19.912 143.495 22.088C143.495 24.264 144.119 26.008 145.367 27.32C146.615 28.6 148.199 29.24 150.119 29.24ZM176.436 12.584C177.332 11.336 178.532 10.392 180.036 9.752C181.572 9.112 183.332 8.792 185.316 8.792V15.704C184.484 15.64 183.924 15.608 183.636 15.608C181.492 15.608 179.812 16.216 178.596 17.432C177.38 18.616 176.772 20.408 176.772 22.808V35H169.284V9.176H176.436V12.584ZM214.83 22.184C214.83 22.28 214.782 22.952 214.686 24.2H195.15C195.502 25.8 196.334 27.064 197.646 27.992C198.958 28.92 200.59 29.384 202.542 29.384C203.886 29.384 205.07 29.192 206.094 28.808C207.15 28.392 208.126 27.752 209.022 26.888L213.006 31.208C210.574 33.992 207.022 35.384 202.35 35.384C199.438 35.384 196.862 34.824 194.622 33.704C192.382 32.552 190.654 30.968 189.438 28.952C188.222 26.936 187.614 24.648 187.614 22.088C187.614 19.56 188.206 17.288 189.39 15.272C190.606 13.224 192.254 11.64 194.334 10.52C196.446 9.368 198.798 8.792 201.39 8.792C203.918 8.792 206.206 9.336 208.254 10.424C210.302 11.512 211.902 13.08 213.054 15.128C214.238 17.144 214.83 19.496 214.83 22.184ZM201.438 14.456C199.742 14.456 198.318 14.936 197.166 15.896C196.014 16.856 195.31 18.168 195.054 19.832H207.774C207.518 18.2 206.814 16.904 205.662 15.944C204.51 14.952 203.102 14.456 201.438 14.456Z" fill="white"/>
</svg>
